<svg width="32" height="32" viewBox="0 0 32 32" fill="none" xmlns="http://www.w3.org/2000/svg">
<path d="M13.3333 14.2627H18.6667C19.4 14.2627 20 14.8627 20 15.596V19.6667C20 20.4027 19.4027 21 18.6667 21H13.3333C12.5973 21 12 20.4027 12 19.6667V15.596C12 14.86 12.5973 14.2627 13.3333 14.2627Z" stroke="#323232" stroke-width="1.5" stroke-linecap="round" stroke-linejoin="round"/>
<path d="M13.7546 14.2626V12.5786C13.7546 11.3386 14.76 10.3333 16 10.3333C17.24 10.3333 18.2453 11.3386 18.2453 12.5786V14.2599" stroke="#323232" stroke-width="1.5" stroke-linecap="round" stroke-linejoin="round"/>
<path d="M24 28H8C5.79067 28 4 26.2093 4 24V8C4 5.79067 5.79067 4 8 4H24C26.2093 4 28 5.79067 28 8V24C28 26.2093 26.2093 28 24 28Z" stroke="#323232" stroke-width="1.5" stroke-linecap="round" stroke-linejoin="round"/>
</svg>
